#!OML:ASF H:\Dans Jumps\Project 1\Capture day 1\Session 1\subject.ASF
:FULLY-SPECIFIED
:DEGREES
450
root 0.412113 17.6093 6.84418 8.41857 -0.892387 -1.78949
lowerback -3.17504 0.258705 0.333573
upperback 1.50835 0.287836 1.33942
thorax 3.32637 0.135217 1.20827
lowerneck -12.5305 -0.74077 -2.70941
upperneck 32.4466 -1.16526 2.41805
head 12.9313 -0.530052 1.2435
rclavicle 3.57812e-015 3.18055e-015
rhumerus -27.3201 -16.4265 -79.2401
rradius 26.2434
rwrist 33.3361
rhand -21.1507 -26.9209
rfingers 7.12502
rthumb 5.22884 -56.8363
lclavicle 3.57812e-015 3.18055e-015
lhumerus -28.8531 -0.384696 88.1662
lradius 20.4804
lwrist 8.37258
lhand -27.52 -5.90496
lfingers 7.12502
lthumb -0.922333 24.0728
rfemur -14.0499 -2.47712 20.5567
rtibia 23.3992
rfoot -15.8208 0.946682
rtoes 15.2613
lfemur -13.1355 8.84008 -17.9266
ltibia 21.4823
lfoot -12.9207 6.35173
ltoes -0.723022
451
root 0.413294 17.6099 6.84011 8.42643 -0.924098 -1.77921
lowerback -3.16361 0.251967 0.33745
upperback 1.50066 0.278824 1.34181
thorax 3.31216 0.130829 1.20789
lowerneck -12.4503 -0.865709 -2.82458
upperneck 31.9161 -1.29968 2.38339
head 12.6971 -0.607081 1.22442
rclavicle -6.95746e-016 -1.61016e-014
rhumerus -27.3784 -16.3933 -79.2643
rradius 26.2225
rwrist 33.3241
rhand -21.0988 -26.8903
rfingers 7.12502
rthumb 5.27899 -56.8045
lclavicle -6.95746e-016 -1.61016e-014
lhumerus -28.9739 -0.288052 88.213
lradius 20.3764
lwrist 8.15877
lhand -27.4615 -5.89218
lfingers 7.12502
lthumb -0.865833 24.0858
rfemur -14.083 -2.45036 20.5418
rtibia 23.4015
rfoot -15.8193 0.894626
rtoes 15.0382
lfemur -13.1299 8.86322 -17.9439
ltibia 21.4361
lfoot -12.9062 6.34036
ltoes -0.710554
452
root 0.41463 17.6105 6.83607 8.435 -0.957677 -1.75999
lowerback -3.1499 0.243988 0.33148
upperback 1.49213 0.268726 1.34153
thorax 3.29578 0.125721 1.2102
lowerneck -12.3427 -1.01121 -2.94651
upperneck 31.3311 -1.45835 2.3366
head 12.439 -0.697244 1.1988
rclavicle -2.16178e-015 -7.95139e-016
rhumerus -27.4361 -16.3762 -79.2842
rradius 26.1833
rwrist 33.3409
rhand -21.057 -26.8604
rfingers 7.12502
rthumb 5.31931 -56.7737
lclavicle -2.16178e-015 -7.95139e-016
lhumerus -29.092 -0.190512 88.2588
lradius 20.2763
lwrist 7.95266
lhand -27.3864 -5.85226
lfingers 7.12502
lthumb -0.793313 24.126
rfemur -14.1194 -2.42484 20.5161
rtibia 23.4104
rfoot -15.8234 0.849754
rtoes 14.8299
lfemur -13.1247 8.88583 -17.9723
ltibia 21.3889
lfoot -12.8881 6.33197
ltoes -0.711851
453
root 0.416193 17.6109 6.83212 8.44068 -0.990804 -1.73522
lowerback -3.13011 0.234485 0.320441
upperback 1.48341 0.256966 1.33885
thorax 3.27579 0.119713 1.21275
lowerneck -12.2123 -1.17745 -3.06815
upperneck 30.698 -1.64318 2.2768
head 12.1614 -0.800705 1.16536
rclavicle 3.97569e-016 1.05356e-014
rhumerus -27.4978 -16.3733 -79.2992
rradius 26.1308
rwrist 33.3886
rhand -21.0154 -26.8339
rfingers 7.12502
rthumb 5.3595 -56.7462
lclavicle 3.97569e-016 1.05356e-014
lhumerus -29.2056 -0.0938955 88.303
lradius 20.1753
lwrist 7.75457
lhand -27.2959 -5.79082
lfingers 7.12502
lthumb -0.705855 24.1878
rfemur -14.1546 -2.40501 20.4834
rtibia 23.4255
rfoot -15.8348 0.813072
rtoes 14.6248
lfemur -13.115 8.90837 -18.0075
ltibia 21.3405
lfoot -12.8686 6.32428
ltoes -0.713503
454
root 0.417958 17.6113 6.8283 8.44571 -1.02537 -1.70643
lowerback -3.10908 0.223593 0.304397
upperback 1.47535 0.243624 1.33461
thorax 3.25579 0.112828 1.21642
lowerneck -12.0643 -1.36308 -3.19612
upperneck 30.0244 -1.8541 2.21546
head 11.8696 -0.91683 1.13013
rclavicle -4.24902e-015 -3.97569e-016
rhumerus -27.5558 -16.3876 -79.3093
rradius 26.0546
rwrist 33.4726
rhand -20.9743 -26.8035
rfingers 7.12502
rthumb 5.39918 -56.7148
lclavicle -4.24902e-015 -3.97569e-016
lhumerus -29.3133 0.000607264 88.3458
lradius 20.0735
lwrist 7.56919
lhand -27.1895 -5.70794
lfingers 7.12502
lthumb -0.603077 24.271
rfemur -14.1915 -2.38738 20.4453
rtibia 23.4465
rfoot -15.8506 0.781014
rtoes 14.4186
lfemur -13.1023 8.92967 -18.0478
ltibia 21.2902
lfoot -12.8465 6.31847
ltoes -0.709738
455
root 0.419863 17.6117 6.82448 8.44978 -1.05878 -1.67552
lowerback -3.08357 0.211017 0.284456
upperback 1.46698 0.228254 1.33021
thorax 3.23298 0.104861 1.22198
lowerneck -11.9032 -1.56436 -3.32762
upperneck 29.3158 -2.08575 2.15093
head 11.5669 -1.04315 1.09313
rclavicle 1.73937e-015 5.76476e-015
rhumerus -27.611 -16.4137 -79.3134
rradius 25.9563
rwrist 33.5888
rhand -20.9367 -26.7667
rfingers 7.12502
rthumb 5.43542 -56.677
lclavicle 1.73937e-015 5.76476e-015
lhumerus -29.4176 0.0960486 88.3879
lradius 19.9707
lwrist 7.38731
lhand -27.0627 -5.6085
lfingers 7.12502
lthumb -0.480668 24.3707
rfemur -14.2286 -2.37315 20.4046
rtibia 23.4687
rfoot -15.8671 0.750737
rtoes 14.2053
lfemur -13.0895 8.9473 -18.091
ltibia 21.2418
lfoot -12.8224 6.31718
ltoes -0.706313
456
root 0.421817 17.6121 6.8208 8.45359 -1.09309 -1.64772
lowerback -3.0574 0.197798 0.265367
upperback 1.45929 0.21196 1.3262
thorax 3.21053 0.0964479 1.22742
lowerneck -11.7427 -1.77957 -3.45881
upperneck 28.5868 -2.33637 2.08319
head 11.2621 -1.17844 1.05423
rclavicle -9.44227e-016 -4.77083e-015
rhumerus -27.6634 -16.4472 -79.3142
rradius 25.8378
rwrist 33.7287
rhand -20.8918 -26.7377
rfingers 7.12502
rthumb 5.47886 -56.6469
lclavicle -9.44227e-016 -4.77083e-015
lhumerus -29.5185 0.195767 88.4264
lradius 19.871
lwrist 7.21318
lhand -26.9382 -5.53053
lfingers 7.12502
lthumb -0.360433 24.4489
rfemur -14.265 -2.35762 20.3673
rtibia 23.4895
rfoot -15.8825 0.718375
rtoes 13.9742
lfemur -13.0777 8.96268 -18.1306
ltibia 21.1979
lfoot -12.7985 6.32063
ltoes -0.688707
457
root 0.423696 17.6125 6.81715 8.46053 -1.12609 -1.63182
lowerback -3.03289 0.18364 0.254439
upperback 1.45109 0.193931 1.32551
thorax 3.18855 0.0873096 1.23161
lowerneck -11.5833 -2.00618 -3.58916
upperneck 27.8396 -2.60383 2.01734
head 10.9561 -1.32113 1.01567
rclavicle 4.19933e-015 -3.18055e-015
rhumerus -27.7174 -16.4847 -79.3124
rradius 25.7085
rwrist 33.8833
rhand -20.8445 -26.7111
rfingers 7.12502
rthumb 5.52445 -56.6191
lclavicle 4.19933e-015 -3.18055e-015
lhumerus -29.6147 0.29372 88.4643
lradius 19.7715
lwrist 7.05412
lhand -26.815 -5.46361
lfingers 7.12502
lthumb -0.241424 24.516
rfemur -14.3033 -2.33672 20.344
rtibia 23.5063
rfoot -15.895 0.681387
rtoes 13.7362
lfemur -13.0733 8.97698 -18.157
ltibia 21.1604
lfoot -12.773 6.32804
ltoes -0.664782
